<?xml version="1.0" standalone="no"?>
<!DOCTYPE svg PUBLIC "-//W3C//DTD SVG 20010904//EN"
 "http://www.w3.org/TR/2001/REC-SVG-20010904/DTD/svg10.dtd">
<svg version="1.0" xmlns="http://www.w3.org/2000/svg"
 width="512.000000pt" height="512.000000pt" viewBox="0 0 512.000000 512.000000"
 preserveAspectRatio="xMidYMid meet">

<g transform="translate(0.000000,512.000000) scale(0.100000,-0.100000)"
fill="#FFFFFF" stroke="none">
<path d="M1461 4785 c-284 -62 -501 -332 -501 -625 0 -195 102 -396 258 -510
l62 -45 0 -1045 0 -1045 -62 -45 c-312 -227 -344 -684 -68 -960 252 -253 647
-252 901 0 226 225 251 578 58 832 l-40 53 56 53 c113 105 214 138 466 152
262 14 420 50 584 133 117 58 190 111 280 201 220 220 364 570 382 922 l6 112
60 43 c155 113 257 315 257 509 0 348 -292 640 -640 640 -348 0 -640 -292
-640 -640 0 -196 103 -397 260 -510 l62 -45 -6 -100 c-7 -123 -26 -196 -76
-300 -73 -148 -182 -242 -333 -291 -66 -20 -114 -27 -247 -34 -249 -13 -400
-44 -548 -111 -36 -16 -66 -29 -68 -29 -2 0 -4 339 -4 753 l0 752 62 45 c312
227 344 683 68 961 -155 155 -374 220 -589 174z m274 -336 c63 -30 124 -90
155 -154 34 -72 34 -198 0 -270 -31 -64 -91 -124 -155 -155 -41 -20 -65 -24
-135 -24 -70 0 -94 4 -135 24 -260 126 -238 495 35 594 63 23 170 16 235 -15z
m1921 -640 c62 -30 123 -90 154 -154 34 -72 34 -198 0 -270 -31 -64 -91 -124
-155 -155 -41 -20 -65 -24 -135 -24 -70 0 -94 4 -135 24 -260 126 -238 494 35
594 62 22 170 15 236 -15z m-1925 -2558 c69 -33 112 -74 150 -143 31 -58 34
-70 33 -148 0 -100 -24 -160 -89 -225 -65 -65 -125 -89 -225 -89 -100 0 -160
24 -225 89 -66 65 -90 125 -90 225 0 70 5 94 25 135 42 86 123 152 215 176 49
13 158 2 206 -20z"/>
</g>
</svg>
