<?xml version="1.0" encoding="utf-8"?>
<svg version="1.1" id="Layer_1" x="0px" y="0px" width="72px" height="72px" viewBox="0 0 72 72" style="enable-background:new 0 0 72 72;" xmlns="http://www.w3.org/2000/svg">
  <style type="text/css">
	.st0{fill:#404040;}
	.st1{fill:#FFCD35;}
</style>
  <circle class="st0" cx="36" cy="36" r="36" style="transform-box: fill-box; transform-origin: 50% 50%;"/>
  <circle class="st1" cx="36" cy="36" r="30.6" style="transform-box: fill-box; transform-origin: 50% 50%;"/>
  <path fill-rule="evenodd" clip-rule="evenodd" d="M 53.591 42.244 C 53.409 42.34 53.226 42.434 53.039 42.522 C 52.084 42.976 50.917 43.385 49.715 43.385 C 46.659 43.385 44.537 41.476 43.32 39.957 C 43.262 39.882 43.203 39.808 43.148 39.737 C 43.026 39.866 42.899 39.998 42.767 40.13 C 41.332 41.564 38.972 43.385 36.001 43.385 C 33.032 43.385 30.668 41.564 29.234 40.13 C 29.104 39.998 28.977 39.866 28.855 39.737 C 28.797 39.808 28.741 39.882 28.681 39.957 C 27.466 41.476 25.344 43.385 22.287 43.385 C 21.086 43.385 19.919 42.976 18.964 42.522 C 18.778 42.434 18.594 42.34 18.413 42.244 C 19.42 44.166 20.938 46.044 22.868 47.697 C 26.513 50.82 31.314 52.879 36.001 52.879 C 40.686 52.879 45.49 50.82 49.135 47.697 C 51.065 46.044 52.585 44.166 53.591 42.244 Z M 18.056 36.971 C 18.259 37.127 18.474 37.289 18.7 37.45 C 19.377 37.935 20.094 38.386 20.774 38.71 C 21.483 39.047 21.989 39.165 22.287 39.165 C 23.451 39.165 24.493 38.437 25.385 37.319 C 25.812 36.789 26.139 36.247 26.358 35.831 C 26.468 35.627 26.548 35.46 26.599 35.351 C 26.624 35.296 26.642 35.255 26.652 35.232 L 26.658 35.215 L 30.617 25.037 L 18.056 36.971 Z M 36.001 22.833 L 30.987 35.724 C 31.297 36.135 31.715 36.644 32.217 37.146 C 33.423 38.348 34.752 39.165 36.001 39.165 C 37.251 39.165 38.581 38.348 39.784 37.146 C 40.286 36.644 40.706 36.135 41.013 35.724 L 36.001 22.833 Z M 45.345 35.215 L 45.351 35.232 C 45.36 35.255 45.379 35.296 45.404 35.351 C 45.455 35.46 45.533 35.627 45.642 35.831 C 45.865 36.247 46.192 36.789 46.615 37.319 C 47.51 38.437 48.552 39.165 49.715 39.165 C 50.014 39.165 50.521 39.047 51.229 38.71 C 51.909 38.386 52.626 37.935 53.303 37.45 C 53.528 37.289 53.742 37.127 53.947 36.971 L 41.388 25.037 L 45.345 35.215 Z M 26.66 35.209 C 26.66 35.209 26.66 35.209 26.66 35.212 L 26.66 35.209 Z M 51.88 50.903 C 47.611 54.561 41.864 57.099 36.001 57.099 C 30.138 57.099 24.392 54.561 20.124 50.903 C 15.885 47.269 12.792 42.25 12.792 37.055 C 12.792 36.477 13.03 35.924 13.45 35.526 L 34.549 15.482 C 35.363 14.707 36.64 14.707 37.454 15.482 L 58.553 35.526 C 58.973 35.924 59.209 36.477 59.209 37.055 C 59.209 42.25 56.118 47.269 51.88 50.903 Z" fill="#000000" style="transform-origin: 36px 36px;"/>
</svg>
