<?xml version="1.0" encoding="utf-8"?>
<svg version="1.1" id="Layer_1" x="0px" y="0px" width="72px" height="72px" viewBox="0 0 72 72" style="enable-background:new 0 0 72 72;" xmlns="http://www.w3.org/2000/svg" xmlns:bx="https://boxy-svg.com">
  <style type="text/css">
	.st0{fill:#404040;}
	.st1{fill:#FFCD35;}
</style>
  <circle class="st0" cx="36" cy="36" r="36"/>
  <circle class="st1" cx="36" cy="36" r="30.6"/>
  <path d="M 22.821 30.301 C 17.185 30.301 13.662 24.36 16.48 19.606 C 19.298 14.853 26.344 14.853 29.162 19.606 C 29.804 20.69 30.143 21.92 30.143 23.171 L 27.214 23.171 C 27.214 19.878 23.553 17.821 20.625 19.466 C 17.696 21.113 17.696 25.23 20.625 26.876 C 21.292 27.252 22.05 27.449 22.821 27.449 L 22.821 30.301 Z" style=""/>
  <path d="M 49.179 30.301 L 49.179 27.449 C 52.56 27.449 54.675 23.884 52.984 21.032 C 51.292 18.18 47.066 18.18 45.374 21.032 C 44.989 21.682 44.786 22.422 44.786 23.171 L 41.858 23.171 C 41.858 17.683 47.959 14.253 52.839 16.997 C 57.72 19.741 57.72 26.602 52.839 29.346 C 51.727 29.972 50.465 30.301 49.179 30.301 Z" style=""/>
  <path d="M 22.821 55.969 C 17.185 55.969 13.662 50.028 16.48 45.274 C 17.788 43.068 20.206 41.709 22.821 41.709 L 22.821 44.561 C 19.44 44.561 17.326 48.126 19.017 50.978 C 20.708 53.83 24.934 53.83 26.626 50.978 C 27.01 50.328 27.214 49.591 27.214 48.839 L 30.143 48.839 C 30.139 52.777 26.863 55.965 22.821 55.969 Z" style=""/>
  <path d="M 49.179 55.969 C 45.137 55.965 41.862 52.777 41.858 48.839 L 44.786 48.839 C 44.786 52.133 48.447 54.191 51.375 52.544 C 54.304 50.898 54.304 46.781 51.375 45.134 C 50.708 44.759 49.95 44.561 49.179 44.561 L 49.179 41.709 C 54.815 41.709 58.338 47.651 55.52 52.404 C 54.212 54.61 51.795 55.969 49.179 55.969 Z" style=""/>
  <path d="M 41.858 39.692 L 41.858 32.317 L 50.215 24.18 C 51.026 23.418 50.685 22.086 49.601 21.783 C 49.079 21.638 48.52 21.783 48.144 22.163 L 41.554 28.58 C 40.224 24.416 34.764 23.217 31.725 26.421 C 31.14 27.038 30.703 27.777 30.445 28.58 L 23.857 22.163 C 23.285 21.607 22.357 21.607 21.786 22.163 C 21.214 22.721 21.214 23.623 21.786 24.18 L 30.143 32.317 L 30.143 39.692 L 21.786 47.831 C 21.214 48.388 21.214 49.292 21.786 49.847 C 22.357 50.405 23.285 50.405 23.857 49.847 L 30.446 43.431 C 31.777 47.595 37.237 48.795 40.275 45.591 C 40.861 44.972 41.299 44.234 41.555 43.431 L 48.144 49.847 C 48.955 50.61 50.31 50.232 50.582 49.167 C 50.704 48.689 50.565 48.184 50.215 47.831 L 41.858 39.692 Z M 38.928 41.709 C 38.928 43.905 36.487 45.276 34.536 44.179 C 33.629 43.67 33.072 42.728 33.072 41.709 L 33.072 30.301 C 33.072 28.106 35.513 26.733 37.464 27.831 C 38.371 28.341 38.928 29.283 38.928 30.301 L 38.928 41.709 Z" style=""/>
  <path d="M 36 7.788 L 50.653 13.339 L 21.347 13.339 L 36 7.788 Z" style="stroke: rgb(0, 0, 0); paint-order: fill;" bx:shape="triangle 21.347 7.788 29.306 5.551 0.5 0 1@ea77bd2c"/>
</svg>
